<svg width="56" height="37" viewBox="0 0 56 37" fill="none" xmlns="http://www.w3.org/2000/svg">
<path d="M14.45 36.25C11.7833 36.25 9.4 35.5333 7.3 34.1C5.23333 32.6333 3.61667 30.5667 2.45 27.9C1.31667 25.2333 0.75 22.1 0.75 18.5C0.75 14.9 1.31667 11.7667 2.45 9.1C3.61667 6.43333 5.23333 4.38333 7.3 2.95C9.4 1.48333 11.7833 0.749998 14.45 0.749998C17.1167 0.749998 19.4833 1.48333 21.55 2.95C23.65 4.38333 25.2667 6.43333 26.4 9.1C27.5667 11.7667 28.15 14.9 28.15 18.5C28.15 22.1 27.5667 25.2333 26.4 27.9C25.2667 30.5667 23.65 32.6333 21.55 34.1C19.4833 35.5333 17.1167 36.25 14.45 36.25ZM14.45 33.9C16.65 33.9 18.5833 33.3 20.25 32.1C21.95 30.8667 23.2667 29.1 24.2 26.8C25.1333 24.4667 25.6 21.7 25.6 18.5C25.6 15.3 25.1333 12.55 24.2 10.25C23.2667 7.91666 21.95 6.15 20.25 4.95C18.5833 3.71666 16.65 3.1 14.45 3.1C12.25 3.1 10.3 3.71666 8.6 4.95C6.93333 6.15 5.63333 7.91666 4.7 10.25C3.76667 12.55 3.3 15.3 3.3 18.5C3.3 21.7 3.76667 24.4667 4.7 26.8C5.63333 29.1 6.93333 30.8667 8.6 32.1C10.3 33.3 12.25 33.9 14.45 33.9ZM43.8219 16.25C47.6885 16.35 50.6219 17.3 52.6219 19.1C54.6552 20.8667 55.6719 23.2167 55.6719 26.15C55.6719 28.1167 55.2052 29.8667 54.2719 31.4C53.3385 32.9 51.9385 34.0833 50.0719 34.95C48.2385 35.8167 46.0219 36.25 43.4219 36.25C40.8885 36.25 38.5052 35.8333 36.2719 35C34.0385 34.1333 32.3052 32.9833 31.0719 31.55L32.3719 29.6C33.5052 30.8667 35.0385 31.9 36.9719 32.7C38.9385 33.5 41.0885 33.9 43.4219 33.9C46.5219 33.9 48.9052 33.2167 50.5719 31.85C52.2385 30.45 53.0719 28.55 53.0719 26.15C53.0719 23.7167 52.2219 21.8167 50.5219 20.45C48.8219 19.0833 46.2719 18.4 42.8719 18.4H40.6719V16.55L51.0219 3.3H32.3719V0.999998H54.3219V2.8L43.8219 16.25Z" fill="#333333"/>
</svg>
